<svg xmlns="http://www.w3.org/2000/svg" width="900" height="156" viewBox="0 0 900 156" role="img">
<style>
  text { font-family: ui-monospace, "SF Mono", "JetBrains Mono", Menlo, Consolas, monospace; }
  .t { fill: #eaf0fb; }
  .m { fill: #a8b3d0; }
  .f { fill: #7884a8; }
  .a { fill: #f0b400; }
  .h { fill: #7d88a6; }
</style>
<rect x="0.5" y="0.5" width="899" height="155" rx="16" fill="#0d1220" stroke="#232d4d"/>

<text class="f" x="28" y="36" font-size="10" letter-spacing="1.4">PUBLIC COMMITS · PAST 12 MONTHS</text>
<text class="a" x="28" y="88" font-size="44" font-weight="700">53</text>
<text class="m" x="28" y="114" font-size="11">6 active days · best month 48</text>
<text class="f" x="28" y="136" font-size="9">original public repositories only · Mexico City time</text>
<rect x="400.0" y="117.0" width="30.0" height="3.0" rx="3" fill="#131a2c" data-month="2025-10" data-count="0"/><text class="f" x="415.0" y="138" font-size="9" text-anchor="middle">oct</text><rect x="440.0" y="117.0" width="30.0" height="3.0" rx="3" fill="#131a2c" data-month="2025-11" data-count="0"/><text class="f" x="455.0" y="138" font-size="9" text-anchor="middle">nov</text><rect x="480.0" y="117.0" width="30.0" height="3.0" rx="3" fill="#131a2c" data-month="2025-12" data-count="0"/><text class="f" x="495.0" y="138" font-size="9" text-anchor="middle">dec</text><rect x="520.0" y="117.0" width="30.0" height="3.0" rx="3" fill="#131a2c" data-month="2026-01" data-count="0"/><text class="f" x="535.0" y="138" font-size="9" text-anchor="middle">jan</text><rect x="560.0" y="117.0" width="30.0" height="3.0" rx="3" fill="#131a2c" data-month="2026-02" data-count="0"/><text class="f" x="575.0" y="138" font-size="9" text-anchor="middle">feb</text><rect x="600.0" y="117.0" width="30.0" height="3.0" rx="3" fill="#131a2c" data-month="2026-03" data-count="0"/><text class="f" x="615.0" y="138" font-size="9" text-anchor="middle">mar</text><rect x="640.0" y="117.0" width="30.0" height="3.0" rx="3" fill="#131a2c" data-month="2026-04" data-count="0"/><text class="f" x="655.0" y="138" font-size="9" text-anchor="middle">apr</text><rect x="680.0" y="117.0" width="30.0" height="3.0" rx="3" fill="#131a2c" data-month="2026-05" data-count="0"/><text class="f" x="695.0" y="138" font-size="9" text-anchor="middle">may</text><rect x="720.0" y="117.0" width="30.0" height="3.0" rx="3" fill="#f0b400" data-month="2026-06" data-count="1"/><text class="f" x="735.0" y="138" font-size="9" text-anchor="middle">jun</text><text class="m" x="735.0" y="111.0" font-size="9" text-anchor="middle">1</text><rect x="760.0" y="113.3" width="30.0" height="6.7" rx="3" fill="#f0b400" data-month="2026-07" data-count="4"/><text class="f" x="775.0" y="138" font-size="9" text-anchor="middle">jul</text><text class="m" x="775.0" y="107.3" font-size="9" text-anchor="middle">4</text><rect x="800.0" y="117.0" width="30.0" height="3.0" rx="3" fill="#131a2c" data-month="2026-08" data-count="0"/><text class="f" x="815.0" y="138" font-size="9" text-anchor="middle">aug</text><rect x="840.0" y="40.0" width="30.0" height="80.0" rx="3" fill="#f0b400" data-month="2026-09" data-count="48"/><text class="f" x="855.0" y="138" font-size="9" text-anchor="middle">sep</text><text class="m" x="855.0" y="34.0" font-size="9" text-anchor="middle">48</text>
<line x1="400" y1="120" x2="870" y2="120" stroke="#232d4d"/>

</svg>