<svg xmlns="http://www.w3.org/2000/svg" width="900" height="205" viewBox="0 0 900 205" role="img">
<style>
  .text { fill: #24292f; font-family: ui-monospace, SFMono-Regular, Menlo, Monaco, Consolas, "Liberation Mono", monospace; }
  .muted { fill: #656d76; font-family: ui-monospace, SFMono-Regular, Menlo, Monaco, Consolas, "Liberation Mono", monospace; }
  .accent { fill: #0969da; }
  .accent-stroke { stroke: #0969da; }
  .line { stroke: #d0d7de; }
  .panel { fill: transparent; stroke: #d0d7de; }
  .soft { fill: #f6f8fa; }
  @media (prefers-color-scheme: dark) {
    .text { fill: #f0f6fc; }
    .muted { fill: #8c959f; }
    .line { stroke: #30363d; }
    .panel { stroke: #30363d; }
    .soft { fill: #161b22; }
  }
</style>
<text class="muted" x="18" y="24" font-size="12">top languages · by bytes</text>
<text class="text" x="18" y="52" font-size="11">HTML</text>
<rect class="accent" x="130" y="42" width="190.0" height="9" rx="2" opacity="0.88"/>
<text class="muted" x="348" y="52" font-size="10" text-anchor="end">97%</text>
<text class="text" x="18" y="80" font-size="11">Python</text>
<rect class="accent" x="130" y="70" width="3.9" height="9" rx="2" opacity="0.88"/>
<text class="muted" x="348" y="80" font-size="10" text-anchor="end">2%</text>
<text class="text" x="18" y="108" font-size="11">Shell</text>
<rect class="accent" x="130" y="98" width="0.6" height="9" rx="2" opacity="0.88"/>
<text class="muted" x="348" y="108" font-size="10" text-anchor="end">0%</text>
<text class="text" x="18" y="136" font-size="11">Go Template</text>
<rect class="accent" x="130" y="126" width="0.3" height="9" rx="2" opacity="0.88"/>
<text class="muted" x="348" y="136" font-size="10" text-anchor="end">0%</text>
<text class="text" x="18" y="164" font-size="11">PowerShell</text>
<rect class="accent" x="130" y="154" width="0.3" height="9" rx="2" opacity="0.88"/>
<text class="muted" x="348" y="164" font-size="10" text-anchor="end">0%</text>
<text class="muted" x="470" y="24" font-size="12">by repository count</text>
<text class="text" x="470" y="52" font-size="11">HTML</text>
<rect class="accent" x="582" y="42" width="190.0" height="9" rx="2" opacity="0.88"/>
<text class="muted" x="800" y="52" font-size="10" text-anchor="end">3</text>
<text class="text" x="470" y="80" font-size="11">Python</text>
<rect class="accent" x="582" y="70" width="190.0" height="9" rx="2" opacity="0.88"/>
<text class="muted" x="800" y="80" font-size="10" text-anchor="end">3</text>
<text class="text" x="470" y="108" font-size="11">Shell</text>
<rect class="accent" x="582" y="98" width="63.3" height="9" rx="2" opacity="0.88"/>
<text class="muted" x="800" y="108" font-size="10" text-anchor="end">1</text>
<text class="text" x="470" y="136" font-size="11">Go Template</text>
<rect class="accent" x="582" y="126" width="63.3" height="9" rx="2" opacity="0.88"/>
<text class="muted" x="800" y="136" font-size="10" text-anchor="end">1</text>
<text class="text" x="470" y="164" font-size="11">PowerShell</text>
<rect class="accent" x="582" y="154" width="63.3" height="9" rx="2" opacity="0.88"/>
<text class="muted" x="800" y="164" font-size="10" text-anchor="end">1</text>
</svg>